<svg width="48" height="48" viewBox="0 0 32 32" fill="none" xmlns="http://www.w3.org/2000/svg" style="color:#000"><rect width="32" height="32" rx="7" fill="currentColor"/><path fill-rule="evenodd" clip-rule="evenodd" d="M24.456 24.485c.778-.778.925-1.83.839-2.739-.087-.92-.425-1.92-.905-2.917A19.4 19.4 0 0 0 22.682 16a19.4 19.4 0 0 0 1.708-2.829c.48-.997.818-1.996.905-2.917.085-.909-.061-1.961-.84-2.74-.777-.777-1.83-.924-2.738-.838-.921.087-1.92.425-2.918.905a19.3 19.3 0 0 0-2.828 1.707 19.4 19.4 0 0 0-2.83-1.707c-.996-.48-1.996-.818-2.916-.905-.91-.086-1.962.06-2.74.839s-.924 1.83-.839 2.739c.087.92.425 1.92.906 2.917.432.899 1.009 1.854 1.707 2.829a19.4 19.4 0 0 0-1.708 2.829c-.48.997-.818 1.996-.905 2.917-.085.909.061 1.961.84 2.74.777.777 1.83.924 2.739.838.92-.087 1.92-.425 2.917-.905a19.4 19.4 0 0 0 2.829-1.707c.974.698 1.93 1.274 2.828 1.707.997.48 1.997.818 2.918.905.909.086 1.96-.06 2.739-.839Zm-8.485-3.537a29 29 0 0 0 2.62-2.328A29 29 0 0 0 20.919 16a29 29 0 0 0-2.328-2.62 29 29 0 0 0-2.62-2.328c-.87.68-1.754 1.46-2.62 2.328A29 29 0 0 0 11.022 16c.68.87 1.46 1.753 2.327 2.62a29 29 0 0 0 2.62 2.328Zm1.179.866a31 31 0 0 0 2.44-2.195c.8-.801 1.536-1.622 2.195-2.44 1.934 2.813 2.678 5.303 1.673 6.308-1.006 1.005-3.495.261-6.308-1.672Zm-6.994-4.635a31 31 0 0 0 2.196 2.44c.8.8 1.621 1.537 2.44 2.195-2.813 1.934-5.303 2.678-6.308 1.673-1.006-1.005-.262-3.495 1.672-6.308Zm0-2.358a31 31 0 0 1 2.196-2.44c.8-.8 1.621-1.537 2.44-2.196-2.813-1.933-5.303-2.677-6.308-1.672-1.006 1.005-.262 3.495 1.672 6.308Zm6.994-4.635a31 31 0 0 1 2.44 2.195c.8.801 1.536 1.622 2.195 2.44 1.934-2.813 2.678-5.303 1.673-6.308-1.006-1.005-3.495-.261-6.308 1.672Z" fill="#fff" stroke="#fff" stroke-width=".5"/><path d="m18.178 15.994-2.184 2.184m1.748-4.586-4.15 4.15" stroke-width=".874" stroke="#fff" stroke-linecap="round" stroke-linejoin="round"/></svg>