<svg xmlns="http://www.w3.org/2000/svg" width="48" height="48" viewBox="0 0 24 24" fill="none" stroke-linecap="round" stroke-linejoin="round"><metadata><rdf:RDF xmlns:rdf="http://www.w3.org/1999/02/22-rdf-syntax-ns#" xmlns:dc="http://purl.org/dc/elements/1.1/"><rdf:Description><dc:creator>RealFaviconGenerator</dc:creator><dc:source>https://realfavicongenerator.net</dc:source></rdf:Description></rdf:RDF></metadata><rect width="24" height="24" rx="5" fill="#000"></rect><g stroke="#fff"><path stroke-width="1.5" d="M22 17a2 2 0 0 1-2 2H4a2 2 0 0 1-2-2V9.5C2 7 4 5 6.5 5H18c2.2 0 4 1.8 4 4z" transform="matrix(.85 0 0 .85 1.8 1.8)"></path><path stroke-width="1.5" d="M6.5 5C9 5 11 7 11 9.5V17a2 2 0 0 1-2 2M6 10h1" transform="matrix(.85 0 0 .85 1.8 1.8)"></path><g stroke-width="50"><path d="m208 128-80 80M192 40 40 192" transform="matrix(.85 0 0 .85 1.8 1.8) matrix(.03 0 0 .03 12.66 10.16)"></path></g></g><style>@media (prefers-color-scheme: light) { :root { filter: none; } }
@media (prefers-color-scheme: dark) { :root { filter: invert(100%); } }
</style></svg>